<?xml version="1.0" encoding="UTF-8" standalone="no"?>
<!-- Created with Inkscape (http://www.inkscape.org/) -->

<svg
   width="5.8376913mm"
   height="6.4983501mm"
   viewBox="0 0 5.8376914 6.4983498"
   version="1.1"
   id="svg5"
   inkscape:version="1.1 (c68e22c387, 2021-05-23)"
   sodipodi:docname="correct.svg"
   xmlns:inkscape="http://www.inkscape.org/namespaces/inkscape"
   xmlns:sodipodi="http://sodipodi.sourceforge.net/DTD/sodipodi-0.dtd"
   xmlns="http://www.w3.org/2000/svg"
   xmlns:svg="http://www.w3.org/2000/svg">
  <sodipodi:namedview
     id="namedview7"
     pagecolor="#ffffff"
     bordercolor="#666666"
     borderopacity="1.0"
     inkscape:pageshadow="2"
     inkscape:pageopacity="0.0"
     inkscape:pagecheckerboard="0"
     inkscape:document-units="mm"
     showgrid="false"
     inkscape:zoom="12.286644"
     inkscape:cx="14.243108"
     inkscape:cy="31.049975"
     inkscape:window-width="1920"
     inkscape:window-height="1051"
     inkscape:window-x="-9"
     inkscape:window-y="-9"
     inkscape:window-maximized="1"
     inkscape:current-layer="layer1"
     inkscape:snap-global="false" />
  <defs
     id="defs2" />
  <g
     inkscape:label="Layer 1"
     inkscape:groupmode="layer"
     id="layer1"
     transform="translate(-47.320203,-156.43546)">
    <circle
       style="fill:#ececec;stroke:#ececec;stroke-width:0;stroke-linecap:round;stroke-linejoin:round;stroke-miterlimit:4;stroke-dasharray:none"
       id="circle24254"
       cx="66.314995"
       cy="153.11076"
       r="2.6992528"
       transform="rotate(5.9739453)" />
    <path
       sodipodi:type="star"
       style="fill:#ffffff;fill-opacity:1;stroke:#ececec;stroke-width:0;stroke-linecap:round;stroke-linejoin:round;stroke-miterlimit:4;stroke-dasharray:none;stroke-opacity:1"
       id="path24256"
       inkscape:flatsided="false"
       sodipodi:sides="3"
       sodipodi:cx="0.80571187"
       sodipodi:cy="-0.34530509"
       sodipodi:r1="6.1296382"
       sodipodi:r2="3.0648191"
       sodipodi:arg1="0.52359878"
       sodipodi:arg2="1.5707963"
       inkscape:rounded="0"
       inkscape:randomized="0"
       transform="matrix(0.32526413,-0.03423095,-0.03423095,-0.32526413,50.374505,160.85532)"
       inkscape:transform-center-y="0.4075904"
       inkscape:transform-center-x="0.10491071"
       d="m 6.1141342,2.719514 -5.30842225,0 -5.30842245,0 2.6542111,-4.5972286 2.65421129,-4.5972287 2.65421111,4.5972286 z" />
    <circle
       style="fill:#ffffff;stroke:#ff6600;stroke-width:0;stroke-linecap:round;stroke-linejoin:round;stroke-miterlimit:4;stroke-dasharray:none"
       id="circle24258"
       cx="66.746559"
       cy="153.0192"
       r="2.6992528"
       transform="rotate(5.9739453)" />
    <g
       id="g25318"
       transform="matrix(0.39913531,0,0,0.39913531,25.60584,91.116233)">
      <path
         style="fill:#37c871;stroke:#000000;stroke-width:0;stroke-linecap:butt;stroke-linejoin:miter;stroke-miterlimit:4;stroke-dasharray:none;stroke-opacity:1"
         d="m 57.810605,171.30467 c 0.541354,-0.26916 1.090259,-0.51567 1.553153,-1.02021 0.271229,0.52811 0.542245,0.87247 1.172479,1.81202 2.165721,-2.29167 3.960454,-3.83824 6.182161,-4.964 -3.125799,3.0478 -5.111928,5.50465 -6.045118,7.41554 -1.128645,-1.49234 -2.099325,-2.24024 -2.862675,-3.24335 z"
         id="path25296"
         sodipodi:nodetypes="cccccc" />
      <path
         style="fill:#00ff00;stroke:#000000;stroke-width:0;stroke-linecap:butt;stroke-linejoin:miter;stroke-miterlimit:4;stroke-dasharray:none;stroke-opacity:1"
         d="m 58.435911,171.06859 c 0.541354,-0.26916 1.090259,-0.51567 1.553153,-1.02021 0.271229,0.52811 0.542245,0.87247 1.172479,1.81202 2.165721,-2.29167 3.960454,-3.83824 6.182161,-4.964 -3.125799,3.0478 -5.111928,5.50465 -6.045118,7.41554 -1.128645,-1.49234 -2.099325,-2.24024 -2.862675,-3.24335 z"
         id="path24446"
         sodipodi:nodetypes="cccccc" />
    </g>
  </g>
</svg>
